<svg xmlns="http://www.w3.org/2000/svg" xmlns:xlink="http://www.w3.org/1999/xlink" width="113" height="40" viewBox="0 0 113 40">
    <defs>
        <path id="a" d="M.195.098h22.158v13.634H.195z"/>
    </defs>
    <g fill="none" fill-rule="evenodd">
        <path fill="#00AFC9" d="M97.849 33.131c.038.008.072.04.06.119-.415.547-1.097 1.167-1.99 1.801a20.739 20.739 0 0 1-2.992 1.75c-1.139.546-2.138 1.006-3.19 1.286-1.18.307-2.21.418-3.061.324-.689-.072-1.257-.274-1.691-.623-.024-.016-.033-.052-.034-.086.01-.05.054-.086.108-.1a44.08 44.08 0 0 0 7.333-1.875c2.225-.769 4.088-1.663 5.457-2.596M97.628 31.86c-1.435.855-4.366 2.111-6.928 2.837-3.052.877-5.498 1.303-7.146 1.077-1.44-.207-2.159-.875-2.379-1.12-.033-.03-.072-.06-.054-.105.008-.051.048-.093.11-.103l.557-.043c1.22-.088 3.405-.15 5.955-.529 2.948-.437 7.678-1.293 9.844-2.146.047.011.076.049.04.132M97.39 35.609c.043.001.083.033.063.109-.529 1.27-1.129 2.227-2.311 2.824-2.075 1.037-3.17.453-3.312.386a.149.149 0 0 1-.07-.113.106.106 0 0 1 .093-.092c.904-.28 3.627-1.297 5.473-3.097a.087.087 0 0 1 .065-.017M111.071 16.05a.09.09 0 0 1 .053.078c-.01.04-.04.066-.106.062-.622-.178-1.943-.534-3.612-.982-3.82-1.024-18.24-4.798-18.481-4.862l-.07-.021c-.863-.268-1.571-.689-2.121-1.274a3.705 3.705 0 0 1-.445-.558c-.48-.729-.606-1.794-.628-1.991 0-.02.006-.066.033-.091.03-.03.065-.035.144-.025l2.36.907c5.599 2.13 20.458 7.793 22.873 8.757"/>
        <g transform="translate(86.3 .17)">
            <mask id="b" fill="#fff">
                <use xlink:href="#a"/>
            </mask>
            <path fill="#00AFC9" d="M22.347 13.624c.021.091-.023.12-.1.104-.843-.42-2.764-1.322-4.692-2.265-1.629-.8-12.767-5.958-13.523-6.336l-1.333-.673c-.196-.095-.373-.206-.553-.315-.526-.316-.8-.544-1.09-.9-.233-.3-.414-.669-.564-1.02C.173 1.427.188.386.201.199.2.169.216.132.257.113.283.095.32.09.396.114l1.39.836.743.454 4.084 2.452c5.692 3.496 13.66 8.48 15.734 9.768" mask="url(#b)"/>
        </g>
        <path fill="#00AFC9" d="M112.753 17.577a.08.08 0 0 1 .065.077c0 .04-.038.063-.093.064-2.193-.152-21.931-1.437-21.931-1.437a2.34 2.34 0 0 1-.508-.089c-1.567-.487-2.482-1.682-2.856-2.881-.012-.046-.021-.092-.001-.133.03-.033.08-.06.125-.054.007 0 23.279 4.105 25.2 4.453M111.784 18.9c.038.003.077.045.075.084a.098.098 0 0 1-.07.064c-.817.13-15.81 2.227-15.913 2.239a1.562 1.562 0 0 1-.266.029c-.082 0-.168 0-.253-.011-.713-.075-1.407-.416-2.037-1.071a3.755 3.755 0 0 1-.683-1.083c-.023-.03-.023-.063 0-.099a.155.155 0 0 1 .099-.055s5.033-.034 8.21-.043c2.364-.002 4.892-.015 6.938-.023 1.784-.007 3.203-.013 3.9-.032M110.659 20.435c.03 0 .088-.012.096.023.005.024.055.066-.026.107-.483.326-11.252 4.791-11.362 4.829-.59.203-1.252.31-1.733-.497-.201-.337-.377-.61-.458-.739-.032-.048-.15-.176.164-.258 0 0 3.037-.82 5.736-1.513 3.12-.787 6.653-1.691 7.583-1.952M105.93 27.857c.043.006.074.045.052.127-1.04 1.2-4.87 5.418-6.603 7.274-.184.183-.273.103-.207-.086 0 0 .328-.826.463-1.458.09-.388.177-.701.39-.874 2.248-1.9 4.411-3.784 5.84-4.958l.064-.025zM109.456 22.518c.048.013.074.046.048.133-1.046.88-5.859 4.9-8.45 7.024l-.088.072c-.756.572-1.261.707-1.35-.532-.028-.297-.064-.543-.064-.543-.049-.26.034-.258.131-.317.842-.523 2.463-1.426 3.75-2.2 2.3-1.373 4.987-3.01 6.023-3.637"/>
        <path fill="#0033A0" d="M71.43 22.098c0 3.056-1.766 5.962-5.596 5.962-3.424 0-5.874-2.284-5.72-7.792.153-5.283 2.712-7.603 6.092-7.603.263 0 .517-.015.754-.033v.004h4.47v9.462zm-4.407-13.01v.003h-.976c-5.155.007-10.004 3.782-10.214 11.136-.192 6.687 3.314 11.367 9.242 11.367 4.874 0 6.583-3.372 6.583-3.372.28 2.258 1.51 2.946 3.958 2.946V9.088h-8.593zm-33.832 0l.012 15.313c.003 2.233-1.852 3.35-4.309 3.35-2.582 0-4.274-1.117-4.274-3.35l-.028-11.456c-.005-3.268-2.062-3.857-3.867-3.857v16.253c0 4.1 3.709 6.115 8.044 6.115 4.205 0 8.33-2.014 8.325-6.115l-.003-11.9c-.001-3.21-1.214-4.353-3.9-4.353zm17.244 0c-4.809 0-8.118 2.76-8.118 8.444v13.636h3.876V17.401c0-2.927 1.58-4.68 4.574-4.68h1.15c3.395 0 3.952-1.745 3.952-3.633h-5.434zM11.532 18.98L6.79 17.682c-1.305-.356-2.496-.923-2.496-2.506 0-1.65 1-2.455 3.111-2.455h4.22c1.866 0 4.087-.615 4.09-3.633l-7.94.01C2.887 9.102.09 11.556.09 15.072c0 3.276 2.09 5.115 5.819 6.1l4.132 1.086c1.707.458 2.316 1.52 2.316 2.611 0 1.654-1.053 2.656-3.62 2.67l-7.917.063v3.566H8.87c4.892 0 7.688-2.607 7.688-6.044 0-3.455-1.366-5.158-5.026-6.144z"/>
    </g>
</svg>
